<?xml version="1.0" standalone="no"?>
<!DOCTYPE svg PUBLIC "-//W3C//DTD SVG 20010904//EN"
 "http://www.w3.org/TR/2001/REC-SVG-20010904/DTD/svg10.dtd">
<svg version="1.0" xmlns="http://www.w3.org/2000/svg"
 width="700.000000pt" height="700.000000pt" viewBox="0 0 700.000000 700.000000"
 preserveAspectRatio="xMidYMid meet">
<metadata>
Created by potrace 1.14, written by Peter Selinger 2001-2017
</metadata>
<g transform="translate(0.000000,700.000000) scale(0.100000,-0.100000)"
fill="#000000" stroke="none">
<path d="M2182 4940 c-54 -33 -53 -125 1 -160 17 -11 67 -15 232 -15 116 -1
219 1 230 3 84 15 101 138 25 177 -18 9 -83 13 -241 13 -194 0 -220 -2 -247
-18z"/>
<path d="M2163 4694 c-37 -18 -48 -57 -58 -194 -3 -47 -8 -101 -10 -120 -2
-19 -7 -78 -10 -130 -4 -52 -8 -111 -10 -130 -2 -19 -7 -82 -10 -140 -4 -58
-9 -112 -10 -120 -2 -9 -6 -63 -10 -120 -4 -58 -11 -109 -15 -114 -5 -5 -34
-10 -65 -12 -49 -2 -126 -11 -160 -20 -5 -1 -31 -7 -57 -13 -287 -66 -581
-310 -709 -588 -122 -262 -137 -558 -43 -827 47 -135 160 -317 248 -400 93
-86 115 -105 156 -133 110 -75 254 -137 393 -170 102 -24 354 -24 457 0 283
67 505 216 671 452 66 93 146 276 164 377 3 13 8 44 13 69 16 86 15 195 -3
223 -22 33 -65 47 -110 35 -48 -13 -67 -46 -70 -122 -8 -163 -52 -310 -137
-444 -48 -76 -42 -69 -123 -153 -194 -201 -500 -301 -777 -253 -334 58 -594
280 -704 601 -52 151 -56 372 -10 525 108 360 417 615 778 643 l79 7 -5 -54
c-5 -51 -8 -81 -21 -259 -3 -41 -8 -97 -10 -125 -2 -27 -7 -88 -11 -135 -3
-47 -8 -101 -10 -120 -2 -19 -6 -80 -10 -135 -6 -92 -4 -102 15 -127 29 -36
68 -48 110 -34 63 20 74 50 86 226 3 47 8 105 10 130 2 25 7 83 10 130 3 47 8
101 10 120 2 19 7 78 10 130 3 52 8 106 10 120 2 14 7 70 10 125 4 55 8 116
10 135 2 19 6 76 10 125 4 50 10 119 14 154 l6 64 117 -134 c64 -74 126 -145
138 -159 12 -14 31 -36 43 -50 12 -14 64 -75 116 -135 52 -61 99 -114 105
-120 9 -9 148 -168 211 -244 11 -13 25 -29 30 -35 6 -6 39 -45 75 -86 36 -41
77 -88 91 -105 15 -16 75 -86 134 -155 59 -69 117 -130 128 -136 12 -7 76 -14
142 -18 127 -6 323 -18 365 -21 14 -1 41 -3 61 -3 35 -2 36 -3 37 -43 10 -235
130 -498 314 -681 160 -160 360 -265 577 -303 88 -16 283 -18 356 -4 28 5 62
12 77 14 44 8 200 65 253 93 294 154 512 449 570 772 13 69 20 226 13 280 -4
30 -10 73 -12 95 -17 123 -88 300 -173 428 -65 98 -190 221 -293 289 -147 96
-259 139 -450 174 -47 9 -225 10 -275 2 -27 -4 -67 -10 -87 -13 -38 -6 -132
-29 -158 -39 -12 -5 -46 56 -146 256 l-130 263 38 66 c22 37 40 81 40 99 2 68
-75 118 -141 90 -22 -9 -44 -33 -71 -78 l-39 -66 -1017 -1 -1016 0 7 108 c4
60 8 119 11 130 2 12 5 68 6 125 l3 103 -33 30 c-37 33 -71 37 -119 13z m2024
-726 c-7 -19 -544 -911 -557 -925 -5 -7 -10 -15 -10 -18 0 -4 -126 -213 -135
-223 -1 -1 -38 39 -81 90 -43 51 -81 95 -84 98 -3 3 -48 55 -100 115 -52 61
-97 112 -100 115 -3 3 -30 34 -60 69 -30 36 -62 72 -70 81 -51 55 -516 594
-518 601 -2 5 368 9 858 9 686 0 861 -3 857 -12z m288 -314 c80 -162 95 -198
83 -205 -35 -19 -126 -92 -179 -143 -144 -138 -257 -339 -298 -528 -17 -81
-18 -83 -47 -82 -16 1 -87 5 -159 9 -71 4 -142 8 -157 9 -50 2 -91 -75 356
666 159 264 292 478 296 475 3 -2 51 -93 105 -201z m805 -244 c83 -14 95 -17
162 -41 214 -78 389 -230 495 -434 104 -199 126 -460 57 -672 -99 -302 -326
-518 -629 -599 -370 -98 -772 60 -977 386 -72 114 -120 247 -134 371 l-7 59
59 -5 c33 -2 106 -7 164 -10 138 -7 259 -15 345 -20 39 -3 122 -7 185 -11 63
-3 126 -7 140 -9 67 -7 132 60 114 119 -4 11 -97 202 -208 423 -110 221 -198
405 -194 408 3 3 46 15 94 25 98 20 248 25 334 10z m-470 -427 c78 -158 149
-300 157 -316 l14 -27 -73 5 c-40 3 -111 7 -158 10 -223 12 -309 17 -350 20
-25 2 -67 4 -93 4 l-49 1 7 33 c31 147 119 314 227 428 50 53 159 140 168 134
3 -2 71 -133 150 -292z"/>
<path d="M4043 4589 c-36 -14 -62 -64 -53 -103 18 -82 25 -83 395 -82 278 1
314 3 338 19 52 34 52 118 -2 156 -25 18 -47 19 -341 19 -173 0 -325 -4 -337
-9z"/>
</g>
</svg>
